<svg width="842" height="914" viewBox="0 0 842 914" fill="none" xmlns="http://www.w3.org/2000/svg">
<path d="M401.498 89.3015L380.498 104.301C358.636 77.2116 344.329 63.0609 304.998 44.8015C269.495 32.0124 249.251 28.1003 212.498 27.3015C164.897 26.0186 140.389 31.6099 99.4978 49.8015C70.0322 65.8571 58.8324 79.1472 44.9978 107.801C37.1512 129.1 34.5601 142.995 35.4978 173.801C46.0815 206.772 53.0133 224 75.9978 241.301C99.4742 257.503 113.323 264.069 138.998 271.802C176.342 282.463 196.951 286.459 233.498 292.302C275.236 301.472 296.088 307.874 327.998 321.802C357.098 337.193 369.526 346.943 386.498 365.802C402.656 386.273 408.495 399.465 414.498 425.302H386.498C375.947 389.053 359.306 372.093 315.498 346.302C284.801 332.349 264.171 326.261 222.498 317.802C180.828 309.95 156.642 304.164 112.998 291.802C65.4848 274.647 44.7427 257.242 19.9978 210.301C1.15039 160.761 5.306 133.895 25.9978 86.8015C47.2334 52.9531 64.3481 38.5109 102.998 19.8015C146.706 2.95856 175.51 -0.10186 231.498 1.30147C319.023 12.8157 355.489 32.8593 401.498 89.3015Z" fill="black" stroke="black"/>
<path d="M399 539.302H365.5C337.817 571.24 313.461 583.606 253.5 595.302C214.378 598.662 191.859 597.912 149 591.302C85.9474 572.297 58.0046 553.495 22 504.302L1 520.302C43.7779 576.185 75.9742 597.447 149 616.802C194.085 623.303 216.086 623.315 253.5 621.302C325.224 611.521 356.64 592.896 399 539.302Z" fill="black" stroke="black"/>
<rect x="816" y="335" width="26" height="579" fill="black"/>
<rect x="458" y="624" width="378" height="24" fill="black"/>
<path d="M431 223L434.5 222.5L428.5 221L432 219.5L429.5 218L430 216.5L435 218L437.5 216L436 214.169L429.689 215L431.5 213L432 212C432.833 211.5 434.7 210.6 435.5 211C436.3 211.4 437.5 210.833 438 210.5L438.5 209L439 206.5L440.5 206L446 206.5L445.5 208.5L444.5 213L442.5 215L443 216.5L444.5 215.5L446 213.5L448 210.5L449.5 211.5L452 213L455.5 213.5L457 214.5L458.5 215.5V217C458 217.333 456.9 218.1 456.5 218.5C456 219 453.5 219.5 453 219.5H449.5L447.5 220.5L448 222L452 222.5H454.5H457.5H460L460.5 224.5L461 227L457 227.5L452 228L448.5 228.5V229.5L448 230L449.203 231H452H455H458H460.5L461 231.5L461.5 233L462 234.5C462.833 234.667 464.5 235.1 464.5 235.5C464.5 235.9 463.167 236 462.5 236C461.167 236.167 458.4 236.5 458 236.5C457.5 236.5 453.5 237 452.5 237.5C451.5 238 451 237.5 450 238C449 238.5 447 238.5 447 239C447 239.4 447.333 240.5 447.5 241L449.5 240.5H452C452.4 240.5 453.833 240.833 454.5 241L456 241.5L457.5 240.5H461L463 241.5L464 245.5L461 246.5L456.5 247L449 247.5L448.5 249L451 250C451.615 250 452.876 250.1 453 250.5C453.124 250.9 454.718 250.333 455.5 250H459.5H462.792L463.5 251.5V253.5L462 255.5H456.5C456.1 255.5 453 255.833 451.5 256L448 256.5V259H450.5H454.5H459.5L463 261V263L462 264.5L460 265.5L458 265L454.5 264.5C453.5 264.833 451.4 265.6 451 266C450.6 266.4 448.833 266.5 448 266.5L448.5 268.5H457.5H460.5L461 269.5H463L464.26 274L459.5 275L452 275.5L447.5 276.5L449 278H454H460L463 279L462.792 283L459.5 283.5L455 284L448.5 285L449.149 286.5H454L459 287.5H461.5L462.792 288.637L463.5 289.5L464 294H457.5C457.1 294 451.333 295 448.5 295.5L449 297L452.5 296.5L457.5 296L460 296.5L462 297L463 298L464 299.182L462 302.5L455 303H448.5L449.5 304L453 305H456H459.5L463.5 306.5L464 311.5L460.5 312.5H455C454 312.5 450.5 314 449.5 314C448.5 314 446 315.5 445.5 315.5C445 315.5 443 318.5 442.843 318.5C442.718 318.5 443.229 319.833 443.5 320.5C444.333 320 446.1 318.9 446.5 318.5C446.9 318.1 447.667 317 448 316.5L450.5 315.5H452L455 315H457.5L460 315.5L463 316L464.5 318L465.5 320L462.792 321C461.028 321.167 457.4 321.5 457 321.5C456.6 321.5 455.167 321.833 454.5 322C453 322.833 449.9 324.5 449.5 324.5C449.1 324.5 451 325.167 452 325.5L453.28 323.5L456.5 324.5H459L461.5 325.5L463.5 326.306L464 327.5L465 330L460.5 331L455 331.5L454 333L455.5 335L457 336L460 336.5H461L464 337.5L463.5 339.5H457L455.5 341.5C456.5 341.667 458.7 341.9 459.5 341.5C460.5 341 463 342 462 343C461 344 459.5 343.5 458.5 343C457.5 342.5 454.5 344 453.5 345C452.7 345.8 454.5 345.333 455.5 345L458 345.5L463 346H464.5C464 346 464.5 347.2 464.5 348C464.5 349 463.5 349 463 349.5C462.5 350 461.5 350.5 460.5 350.5C459.5 350.5 457.5 350.222 456 350.222C454.5 350.222 454.5 351.5 454.5 351.69C454.5 351.842 455.167 352.96 455.5 353.5L459.5 354H463.5C464.3 354 464.5 354.667 464.5 355L464 357C463.167 357.667 461.2 359 460 359C458.8 359 456.5 359.667 455.5 360L454.5 361.5L456.5 362L463.5 362.5V363.5L456 364.5V366L454 367C445.663 372.193 440.585 372.347 430.5 367C430.667 366.333 430.8 364.9 430 364.5C429.2 364.1 428.667 364 428.5 364H423.5L422.5 362.5C422.833 362.333 423.7 361.7 424.5 360.5C425.3 359.3 425.167 360 425 360.5L432 361L433.5 360.5V359C432.5 358.667 430.3 358 429.5 358H424.5C423.833 357.833 422.4 357.5 422 357.5C421.6 357.5 421.167 356.833 421 356.5L422 355L423.5 354.5V353L423 352.5L421 353.5L420.5 351L422.5 350.5H424.5C425 350.5 426.5 351 427 351C427.4 351 428.833 351.46 429.5 351.69L430.5 352C431.333 352.333 433 353.1 433 353.5C433 354 434 354 434.5 354C434.9 354 437 353.333 438 353L439.5 351.5L438.5 351.69L436 352L432 351.5L430 350.222L427 349L425.5 348.5L423 348L421.5 347V345L421 343L438.5 342.5L438 342L437 341.5L434.5 341H431.5C431 341 430.5 340.5 430 340.5C429.6 340.5 426.833 339.833 425.5 339.5L422.5 338.5L421.5 338L420.5 336.5L422 335.5C422.333 335.5 423.1 335.4 423.5 335C423.9 334.6 424 334.833 424 335C424.5 334.833 425.6 334.5 426 334.5C426.4 334.5 426.833 334.167 427 334V332.5L428.5 332L430 332.5L432 333L437 332.5L435.5 332L434 331.5C433.5 331.333 432.4 331 432 331H430.5L428 330L426 329.5L423.5 329L422 328V327.5L423.5 327H427L425 326H422.5L422 324L423 323.5H425.5L428 325H434.5L434 324C433.333 323.833 431.9 323.5 431.5 323.5C431.1 323.5 429 322.833 428 322.5L425.5 321.5L421.5 321L422 317L421.5 316.5L421 316L421.5 314H427L435.5 313.5L433.5 313L432.5 312H430L424.5 311.5L427 309.5L424 309L422.5 308.5L421.5 306C423.833 305.833 428.9 305.6 430.5 306C432.1 306.4 431.833 305.833 431.5 305.5L431 304.726L430 304.5L428 304L429 303.5H431.5L432.5 304L434.5 303.5L433 302H422.5L423 298.5L422 298V297H425.5L427.5 296.5H428L430.5 297L432.5 296.5H433H434C434.4 296.5 434.833 296.167 435 296V295.5L434.5 294.5L433 294H430.5C429.3 294 428 293.667 427.5 293.5L425.5 292.5H423.5C423.1 292.5 422.667 292.167 422.5 292L421.5 291L422 289.5L423 289H425C425.667 288.833 427.1 288.451 427.5 288.257C428 288.013 428.5 288 428.5 287.5C428.5 287.1 429.167 287 429.5 287L431 287.5L435.5 287L435 286.5L433 286L431 285L429 284.5L426.5 284C426 283.667 424.9 283 424.5 283C424.1 283 423.667 282.333 423.5 282V281L423 280L423.5 279L425 278L427.5 278.5L430.5 279C431.167 279 432.6 278.9 433 278.5C433.4 278.1 434.833 278.333 435.5 278.5L432.5 276.842C430.667 276.895 426.9 276.968 426.5 276.842C426.1 276.715 425.667 276.228 425.5 276L427.5 275H435.5L435 274L428 273.5L427 273L425 272H423L422 270.5L422.5 269H425L427 268.5L427.5 267.5L431.5 267V266L426 265.5L429.5 264L425 263.5L422 262.5L421.5 262H424L425.5 261.5L426 261L427 260.5L425.5 260L423 259.5H423.5L425.5 259L427 258.5L428.5 258L429 257L429.689 256.5H430.5L432 255.5L434 253.5H432.5H431H430L429 253V252.5L428 253C427.667 253.167 426.9 253.5 426.5 253.5H424.5L424 252.5L424.5 252L425 251.5V251L425.5 250.5L426 249.5H427.5H428.5H432H434.5L435.5 248V247L434 246.5H431.5H429.689L429 246L426 245.5H424.5L424 245L424.5 244.5H426H429H432.5L434.5 244L436 243L435 242H433.5C432.833 242.167 431.4 242.5 431 242.5H429C428.6 242.5 425.167 242.833 423.5 243L424 241.5H426.5L429 240.5L432 238.5C432.667 238.333 434.1 238 434.5 238H436C436.5 238 436.5 238 437 236C437.4 234.4 436.5 234.667 436 235L435 235.5C434.333 235.667 432.9 236 432.5 236C432.1 236 431.333 236.333 431 236.5H429.689L427.5 236V235H425V234V232.5L426.5 231L429 230.5H431.5L432 229.5L429.5 228.5H431L434.5 228V227L429.689 226.5H426.5L426 225.5L431 223Z" fill="#141311"/>
<path d="M402 520C435.036 538.37 453.143 538.237 485 520M403 450.5C433.367 433.953 451.09 431.69 485 450.5" stroke="#CA9291" stroke-width="2"/>
<rect x="431.5" y="507" width="25" height="407" fill="#CA9291"/>
<path d="M468 485.5C468 498.183 457.275 508.5 444 508.5C430.725 508.5 420 498.183 420 485.5C420 472.817 430.725 462.5 444 462.5C457.275 462.5 468 472.817 468 485.5Z" stroke="#CA9291"/>
<path d="M430.5 367C440.956 372.442 446.632 371.962 456.5 367V464C446.927 461.561 441.249 461.413 430.5 464V367Z" fill="#CA9291"/>
<path d="M769.007 471V507.5" stroke="black" stroke-width="2"/>
<path d="M505.007 478.999C523.126 466.229 530.895 466.459 540.507 479.999V506.499M606.007 506.5V479.5C600.567 468.283 592.599 467.202 572.007 472M675.007 470.5L661.007 471M661.007 471C669.443 479.505 670.035 483.549 661.007 489C656.696 491.324 653.508 492.337 649.507 491.584M661.007 471C654.835 469.063 651.006 468.671 642.507 471C634.379 478.901 634.112 482.877 642.507 489C645.221 490.359 647.469 491.2 649.507 491.584M649.507 491.584L638.507 493.5V499L641.507 500.5M641.507 500.5C651.084 500.059 656.192 500.077 665.007 500.5C677.827 508.952 678.255 513.558 665.007 521.5C655.366 522.696 649.907 522.869 640.007 521.5C628.449 513.551 627.8 508.972 641.507 500.5ZM701.007 449V506.5M605.507 491C587.729 482.778 580.121 482.283 572.007 491C570.444 492.314 569.953 493.589 569.507 496.5C569.826 500.127 570.413 501.182 572.007 501.5C584.261 510.294 591.721 508.104 605.507 498.5V491Z" stroke="black" stroke-width="2"/>
<path d="M269.507 506.5V469" stroke="black" stroke-width="2"/>
<path d="M294.007 470.5C279.237 470.981 273.799 473.666 270.007 483.5M326.007 472.5C358.007 467.5 362.651 468.152 366.507 483.5V506.5M505.007 506.5V449.5M366.007 497.5V491C349.247 482.629 340.001 481.368 324.007 490.5C322.576 491.747 322.142 492.846 322.007 495.5C321.896 498.095 322.505 499.067 324.007 500.5C337.972 512.135 347.787 508.212 366.007 497.5Z" stroke="black" stroke-width="2"/>
<path d="M151.007 480C166.488 467.928 180.051 464.641 193.507 480V506.5M232.007 470V506.5" stroke="black" stroke-width="2"/>
<path d="M150.507 506.5V449" stroke="black" stroke-width="2"/>
<path d="M116.507 474C101.801 467.812 93.9757 467.751 81.0071 474C79.769 477.465 79.5636 479.196 81.0071 481.5C93.5619 486.418 99.5544 488.222 106.507 488C125.265 496.127 120.561 500.268 106.507 507.5C92.3979 508.072 87.4648 506.2 80.5071 501.5" stroke="black" stroke-width="2"/>
<circle cx="232.007" cy="458.5" r="2.5" fill="black"/>
<path d="M742.507 487C742.507 491.654 740.189 496.663 736.354 500.523C732.528 504.374 727.273 507 721.507 507C715.741 507 710.486 504.374 706.66 500.523C702.825 496.663 700.507 491.654 700.507 487C700.507 477.789 709.712 470 721.507 470C733.302 470 742.507 477.789 742.507 487Z" stroke="black" stroke-width="2"/>
<circle cx="769.007" cy="459.5" r="2.5" fill="black"/>
</svg>
