<svg width="85" height="708" viewBox="0 0 85 708" fill="none" xmlns="http://www.w3.org/2000/svg">
<path d="M30 17L33.5 16.5L27.5 15L31 13.5L28.5 12L29 10.5L34 12L36.5 10L35 8.16932L28.6892 9L30.5 7L31 6C31.8333 5.5 33.7 4.6 34.5 5C35.3 5.4 36.5 4.83333 37 4.5L37.5 3L38 0.5L39.5 0L45 0.5L44.5 2.5L43.5 7L41.5 9L42 10.5L43.5 9.5L45 7.5L47 4.5L48.5 5.5L51 7L54.5 7.5L56 8.5L57.5 9.5V11C57 11.3333 55.9 12.1 55.5 12.5C55 13 52.5 13.5 52 13.5H48.5L46.5 14.5L47 16L51 16.5H53.5H56.5H59L59.5 18.5L60 21L56 21.5L51 22L47.5 22.5V23.5L47 24L48.203 25H51H54H57H59.5L60 25.5L60.5 27L61 28.5C61.8333 28.6667 63.5 29.1 63.5 29.5C63.5 29.9 62.1667 30 61.5 30C60.1667 30.1667 57.4 30.5 57 30.5C56.5 30.5 52.5 31 51.5 31.5C50.5 32 50 31.5 49 32C48 32.5 46 32.5 46 33C46 33.4 46.3333 34.5 46.5 35L48.5 34.5H51C51.4 34.5 52.8333 34.8333 53.5 35L55 35.5L56.5 34.5H60L62 35.5L63 39.5L60 40.5L55.5 41L48 41.5L47.5 43L50 44C50.615 44 51.8759 44.1 52 44.5C52.1241 44.9 53.7184 44.3333 54.5 44H58.5H61.792L62.5 45.5V47.5L61 49.5H55.5C55.1 49.5 52 49.8333 50.5 50L47 50.5V53H49.5H53.5H58.5L62 55V57L61 58.5L59 59.5L57 59L53.5 58.5C52.5 58.8333 50.4 59.6 50 60C49.6 60.4 47.8333 60.5 47 60.5L47.5 62.5H56.5H59.5L60 63.5H62L63.2596 68L58.5 69L51 69.5L46.5 70.5L48 72H53H59L62 73L61.792 77L58.5 77.5L54 78L47.5 79L48.1486 80.5H53L58 81.5H60.5L61.792 82.6371L62.5 83.5L63 88H56.5C56.1 88 50.3333 89 47.5 89.5L48 91L51.5 90.5L56.5 90L59 90.5L61 91L62 92L63 93.1822L61 96.5L54 97H47.5L48.5 98L52 99H55H58.5L62.5 100.5L63 105.5L59.5 106.5H54C53 106.5 49.5 108 48.5 108C47.5 108 45 109.5 44.5 109.5C44 109.5 42 112.5 41.8433 112.5C41.718 112.5 42.2289 113.833 42.5 114.5C43.3333 114 45.1 112.9 45.5 112.5C45.9 112.1 46.6667 111 47 110.5L49.5 109.5H51L54 109H56.5L59 109.5L62 110L63.5 112L64.5 114L61.792 115C60.028 115.167 56.4 115.5 56 115.5C55.6 115.5 54.1667 115.833 53.5 116C52 116.833 48.9 118.5 48.5 118.5C48.1 118.5 50 119.167 51 119.5L52.2797 117.5L55.5 118.5H58L60.5 119.5L62.5 120.306L63 121.5L64 124L59.5 125L54 125.5L53 127L54.5 129L56 130L59 130.5H60L63 131.5L62.5 133.5H56L54.5 135.5C55.5 135.667 57.7 135.9 58.5 135.5C59.5 135 62 136 61 137C60 138 58.5 137.5 57.5 137C56.5 136.5 53.5 138 52.5 139C51.7 139.8 53.5 139.333 54.5 139L57 139.5L62 140H63.5C63 140 63.5 141.2 63.5 142C63.5 143 62.5 143 62 143.5C61.5 144 60.5 144.5 59.5 144.5C58.5 144.5 56.5 144.222 55 144.222C53.5 144.222 53.5 145.5 53.5 145.69C53.5 145.842 54.1667 146.96 54.5 147.5L58.5 148H62.5C63.3 148 63.5 148.667 63.5 149L63 151C62.1667 151.667 60.2 153 59 153C57.8 153 55.5 153.667 54.5 154L53.5 155.5L55.5 156L62.5 156.5V157.5L55 158.5V160L53 161C44.663 166.193 39.5854 166.347 29.5 161C29.6667 160.333 29.8 158.9 29 158.5C28.2 158.1 27.6667 158 27.5 158H22.5L21.5 156.5C21.8333 156.333 22.7 155.7 23.5 154.5C24.3 153.3 24.1667 154 24 154.5L31 155L32.5 154.5V153C31.5 152.667 29.3 152 28.5 152H23.5C22.8333 151.833 21.4 151.5 21 151.5C20.6 151.5 20.1667 150.833 20 150.5L21 149L22.5 148.5V147L22 146.5L20 147.5L19.5 145L21.5 144.5H23.5C24 144.5 25.5 145 26 145C26.4 145 27.8333 145.46 28.5 145.69L29.5 146C30.3333 146.333 32 147.1 32 147.5C32 148 33 148 33.5 148C33.9 148 36 147.333 37 147L38.5 145.5L37.5 145.69L35 146L31 145.5L29 144.222L26 143L24.5 142.5L22 142L20.5 141V139L20 137L37.5 136.5L37 136L36 135.5L33.5 135H30.5C30 135 29.5 134.5 29 134.5C28.6 134.5 25.8333 133.833 24.5 133.5L21.5 132.5L20.5 132L19.5 130.5L21 129.5C21.3333 129.5 22.1 129.4 22.5 129C22.9 128.6 23 128.833 23 129C23.5 128.833 24.6 128.5 25 128.5C25.4 128.5 25.8333 128.167 26 128V126.5L27.5 126L29 126.5L31 127L36 126.5L34.5 126L33 125.5C32.5 125.333 31.4 125 31 125H29.5L27 124L25 123.5L22.5 123L21 122V121.5L22.5 121H26L24 120H21.5L21 118L22 117.5H24.5L27 119H33.5L33 118C32.3333 117.833 30.9 117.5 30.5 117.5C30.1 117.5 28 116.833 27 116.5L24.5 115.5L20.5 115L21 111L20.5 110.5L20 110L20.5 108H26L34.5 107.5L32.5 107L31.5 106H29L23.5 105.5L26 103.5L23 103L21.5 102.5L20.5 100C22.8333 99.8333 27.9 99.6 29.5 100C31.1 100.4 30.8333 99.8333 30.5 99.5L30 98.7265L29 98.5L27 98L28 97.5H30.5L31.5 98L33.5 97.5L32 96H21.5L22 92.5L21 92V91H24.5L26.5 90.5H27L29.5 91L31.5 90.5H32H33C33.4 90.5 33.8333 90.1667 34 90V89.5L33.5 88.5L32 88H29.5C28.3 88 27 87.6667 26.5 87.5L24.5 86.5H22.5C22.1 86.5 21.6667 86.1667 21.5 86L20.5 85L21 83.5L22 83H24C24.6667 82.8333 26.1 82.4513 26.5 82.2566C27 82.0132 27.5 82 27.5 81.5C27.5 81.1 28.1667 81 28.5 81L30 81.5L34.5 81L34 80.5L32 80L30 79L28 78.5L25.5 78C25 77.6667 23.9 77 23.5 77C23.1 77 22.6667 76.3333 22.5 76V75L22 74L22.5 73L24 72L26.5 72.5L29.5 73C30.1667 73 31.6 72.9 32 72.5C32.4 72.1 33.8333 72.3333 34.5 72.5L31.5 70.8418C29.6667 70.8946 25.9 70.9684 25.5 70.8418C25.1 70.7153 24.6667 70.2279 24.5 70L26.5 69H34.5L34 68L27 67.5L26 67L24 66H22L21 64.5L21.5 63H24L26 62.5L26.5 61.5L30.5 61V60L25 59.5L28.5 58L24 57.5L21 56.5L20.5 56H23L24.5 55.5L25 55L26 54.5L24.5 54L22 53.5H22.5L24.5 53L26 52.5L27.5 52L28 51L28.6892 50.5H29.5L31 49.5L33 47.5H31.5H30H29L28 47V46.5L27 47C26.6667 47.1667 25.9 47.5 25.5 47.5H23.5L23 46.5L23.5 46L24 45.5V45L24.5 44.5L25 43.5H26.5H27.5H31H33.5L34.5 42V41L33 40.5H30.5H28.6892L28 40L25 39.5H23.5L23 39L23.5 38.5H25H28H31.5L33.5 38L35 37L34 36H32.5C31.8333 36.1667 30.4 36.5 30 36.5H28C27.6 36.5 24.1667 36.8333 22.5 37L23 35.5H25.5L28 34.5L31 32.5C31.6667 32.3333 33.1 32 33.5 32H35C35.5 32 35.5 32 36 30C36.4 28.4 35.5 28.6667 35 29L34 29.5C33.3333 29.6667 31.9 30 31.5 30C31.1 30 30.3333 30.3333 30 30.5H28.6892L26.5 30V29H24V28V26.5L25.5 25L28 24.5H30.5L31 23.5L28.5 22.5H30L33.5 22V21L28.6892 20.5H25.5L25 19.5L30 17Z" fill="#141311"/>
<path d="M1 314C34.0363 332.37 52.1435 332.237 84 314M2 244.5C32.3673 227.953 50.0897 225.69 84 244.5" stroke="#CA9291" stroke-width="2"/>
<rect x="30.5" y="301" width="25" height="407" fill="#CA9291"/>
<path d="M67 279.5C67 292.183 56.2747 302.5 43 302.5C29.7253 302.5 19 292.183 19 279.5C19 266.817 29.7253 256.5 43 256.5C56.2747 256.5 67 266.817 67 279.5Z" stroke="#CA9291"/>
<path d="M29.5 161C39.9555 166.442 45.6324 165.962 55.5 161V258C45.9267 255.561 40.2488 255.413 29.5 258V161Z" fill="#CA9291"/>
</svg>
